<svg width="375" height="1095" viewBox="0 0 375 1095" fill="none" xmlns="http://www.w3.org/2000/svg">
<g opacity="0.08">
<mask id="mask0_2709_32998" style="mask-type:alpha" maskUnits="userSpaceOnUse" x="0" y="0" width="375" height="1095">
<path d="M0 0H375V1095H0V0Z" fill="#151719"/>
</mask>
<g mask="url(#mask0_2709_32998)">
<circle cx="19.2143" cy="18.8715" r="1.6469" fill="#FDCC54"/>
<circle cx="50.6147" cy="18.8715" r="1.6469" fill="#FDCC54"/>
<circle cx="82.016" cy="18.8715" r="1.6469" fill="#FDCC54"/>
<circle cx="113.417" cy="18.8715" r="1.6469" fill="#FDCC54"/>
<circle cx="144.818" cy="18.8715" r="1.6469" fill="#FDCC54"/>
<circle cx="176.219" cy="18.8715" r="1.6469" fill="#FDCC54"/>
<circle cx="207.621" cy="18.8715" r="1.6469" fill="#FDCC54"/>
<circle cx="239.021" cy="18.8715" r="1.6469" fill="#FDCC54"/>
<circle cx="19.2143" cy="50.2724" r="1.6469" fill="#FDCC54"/>
<circle cx="50.6147" cy="50.2724" r="1.6469" fill="#FDCC54"/>
<circle cx="82.016" cy="50.2724" r="1.6469" fill="#FDCC54"/>
<circle cx="113.417" cy="50.2724" r="1.6469" fill="#FDCC54"/>
<circle cx="144.818" cy="50.2724" r="1.6469" fill="#FDCC54"/>
<circle cx="176.219" cy="50.2724" r="1.6469" fill="#FDCC54"/>
<circle cx="207.621" cy="50.2724" r="1.6469" fill="#FDCC54"/>
<circle cx="239.021" cy="50.2724" r="1.6469" fill="#FDCC54"/>
<circle cx="19.2143" cy="81.6733" r="1.6469" fill="#FDCC54"/>
<circle cx="50.6147" cy="81.6733" r="1.6469" fill="#FDCC54"/>
<circle cx="82.016" cy="81.6733" r="1.6469" fill="#FDCC54"/>
<circle cx="113.417" cy="81.6733" r="1.6469" fill="#FDCC54"/>
<circle cx="144.818" cy="81.6733" r="1.6469" fill="#FDCC54"/>
<circle cx="176.219" cy="81.6733" r="1.6469" fill="#FDCC54"/>
<circle cx="207.621" cy="81.6733" r="1.6469" fill="#FDCC54"/>
<circle cx="239.021" cy="81.6733" r="1.6469" fill="#FDCC54"/>
<circle cx="19.2143" cy="113.074" r="1.6469" fill="#FDCC54"/>
<circle cx="50.6147" cy="113.074" r="1.6469" fill="#FDCC54"/>
<circle cx="82.016" cy="113.074" r="1.6469" fill="#FDCC54"/>
<circle cx="113.417" cy="113.074" r="1.6469" fill="#FDCC54"/>
<circle cx="144.818" cy="113.074" r="1.6469" fill="#FDCC54"/>
<circle cx="176.219" cy="113.074" r="1.6469" fill="#FDCC54"/>
<circle cx="207.621" cy="113.074" r="1.6469" fill="#FDCC54"/>
<circle cx="239.021" cy="113.074" r="1.6469" fill="#FDCC54"/>
<circle cx="19.2143" cy="144.475" r="1.6469" fill="#FDCC54"/>
<circle cx="50.6147" cy="144.475" r="1.6469" fill="#FDCC54"/>
<circle cx="82.016" cy="144.475" r="1.6469" fill="#FDCC54"/>
<circle cx="113.417" cy="144.475" r="1.6469" fill="#FDCC54"/>
<circle cx="144.818" cy="144.475" r="1.6469" fill="#FDCC54"/>
<circle cx="176.219" cy="144.475" r="1.6469" fill="#FDCC54"/>
<circle cx="207.621" cy="144.475" r="1.6469" fill="#FDCC54"/>
<circle cx="239.021" cy="144.475" r="1.6469" fill="#FDCC54"/>
<circle cx="19.2143" cy="175.876" r="1.6469" fill="#FDCC54"/>
<circle cx="50.6147" cy="175.876" r="1.6469" fill="#FDCC54"/>
<circle cx="82.016" cy="175.876" r="1.6469" fill="#FDCC54"/>
<circle cx="113.417" cy="175.876" r="1.6469" fill="#FDCC54"/>
<circle cx="144.818" cy="175.876" r="1.6469" fill="#FDCC54"/>
<circle cx="176.219" cy="175.876" r="1.6469" fill="#FDCC54"/>
<circle cx="207.621" cy="175.876" r="1.6469" fill="#FDCC54"/>
<circle cx="239.021" cy="175.876" r="1.6469" fill="#FDCC54"/>
<circle cx="19.2143" cy="207.277" r="1.6469" fill="#FDCC54"/>
<circle cx="50.6147" cy="207.277" r="1.6469" fill="#FDCC54"/>
<circle cx="82.016" cy="207.277" r="1.6469" fill="#FDCC54"/>
<circle cx="113.417" cy="207.277" r="1.6469" fill="#FDCC54"/>
<circle cx="144.818" cy="207.277" r="1.6469" fill="#FDCC54"/>
<circle cx="176.219" cy="207.277" r="1.6469" fill="#FDCC54"/>
<circle cx="207.621" cy="207.277" r="1.6469" fill="#FDCC54"/>
<circle cx="239.021" cy="207.277" r="1.6469" fill="#FDCC54"/>
<circle cx="19.2143" cy="238.678" r="1.6469" fill="#FDCC54"/>
<circle cx="50.6147" cy="238.678" r="1.6469" fill="#FDCC54"/>
<circle cx="82.016" cy="238.678" r="1.6469" fill="#FDCC54"/>
<circle cx="113.417" cy="238.678" r="1.6469" fill="#FDCC54"/>
<circle cx="144.818" cy="238.678" r="1.6469" fill="#FDCC54"/>
<circle cx="176.219" cy="238.678" r="1.6469" fill="#FDCC54"/>
<circle cx="207.621" cy="238.678" r="1.6469" fill="#FDCC54"/>
<circle cx="239.021" cy="238.678" r="1.6469" fill="#FDCC54"/>
<circle cx="270.422" cy="18.8715" r="1.6469" fill="#FDCC54"/>
<circle cx="301.823" cy="18.8715" r="1.6469" fill="#FDCC54"/>
<circle cx="333.224" cy="18.8715" r="1.6469" fill="#FDCC54"/>
<circle cx="364.625" cy="18.8715" r="1.6469" fill="#FDCC54"/>
<circle cx="270.422" cy="50.2724" r="1.6469" fill="#FDCC54"/>
<circle cx="301.823" cy="50.2724" r="1.6469" fill="#FDCC54"/>
<circle cx="333.224" cy="50.2724" r="1.6469" fill="#FDCC54"/>
<circle cx="364.625" cy="50.2724" r="1.6469" fill="#FDCC54"/>
<circle cx="270.422" cy="81.6733" r="1.6469" fill="#FDCC54"/>
<circle cx="301.823" cy="81.6733" r="1.6469" fill="#FDCC54"/>
<circle cx="333.224" cy="81.6733" r="1.6469" fill="#FDCC54"/>
<circle cx="364.625" cy="81.6733" r="1.6469" fill="#FDCC54"/>
<circle cx="270.422" cy="113.074" r="1.6469" fill="#FDCC54"/>
<circle cx="301.823" cy="113.074" r="1.6469" fill="#FDCC54"/>
<circle cx="333.224" cy="113.074" r="1.6469" fill="#FDCC54"/>
<circle cx="364.625" cy="113.074" r="1.6469" fill="#FDCC54"/>
<circle cx="270.422" cy="144.475" r="1.6469" fill="#FDCC54"/>
<circle cx="301.823" cy="144.475" r="1.6469" fill="#FDCC54"/>
<circle cx="333.224" cy="144.475" r="1.6469" fill="#FDCC54"/>
<circle cx="364.625" cy="144.475" r="1.6469" fill="#FDCC54"/>
<circle cx="270.422" cy="175.876" r="1.6469" fill="#FDCC54"/>
<circle cx="301.823" cy="175.876" r="1.6469" fill="#FDCC54"/>
<circle cx="333.224" cy="175.876" r="1.6469" fill="#FDCC54"/>
<circle cx="364.625" cy="175.876" r="1.6469" fill="#FDCC54"/>
<circle cx="270.422" cy="207.277" r="1.6469" fill="#FDCC54"/>
<circle cx="301.823" cy="207.277" r="1.6469" fill="#FDCC54"/>
<circle cx="333.224" cy="207.277" r="1.6469" fill="#FDCC54"/>
<circle cx="364.625" cy="207.277" r="1.6469" fill="#FDCC54"/>
<circle cx="270.422" cy="238.678" r="1.6469" fill="#FDCC54"/>
<circle cx="301.823" cy="238.678" r="1.6469" fill="#FDCC54"/>
<circle cx="333.224" cy="238.678" r="1.6469" fill="#FDCC54"/>
<circle cx="364.625" cy="238.678" r="1.6469" fill="#FDCC54"/>
<circle cx="19.2143" cy="270.079" r="1.6469" fill="#FDCC54"/>
<circle cx="50.6147" cy="270.079" r="1.6469" fill="#FDCC54"/>
<circle cx="82.016" cy="270.079" r="1.6469" fill="#FDCC54"/>
<circle cx="113.417" cy="270.079" r="1.6469" fill="#FDCC54"/>
<circle cx="144.818" cy="270.079" r="1.6469" fill="#FDCC54"/>
<circle cx="176.219" cy="270.079" r="1.6469" fill="#FDCC54"/>
<circle cx="207.621" cy="270.079" r="1.6469" fill="#FDCC54"/>
<circle cx="239.021" cy="270.079" r="1.6469" fill="#FDCC54"/>
<circle cx="19.2143" cy="301.48" r="1.6469" fill="#FDCC54"/>
<circle cx="50.6147" cy="301.48" r="1.6469" fill="#FDCC54"/>
<circle cx="82.016" cy="301.48" r="1.6469" fill="#FDCC54"/>
<circle cx="113.417" cy="301.48" r="1.6469" fill="#FDCC54"/>
<circle cx="144.818" cy="301.48" r="1.6469" fill="#FDCC54"/>
<circle cx="176.219" cy="301.48" r="1.6469" fill="#FDCC54"/>
<circle cx="207.621" cy="301.48" r="1.6469" fill="#FDCC54"/>
<circle cx="239.021" cy="301.48" r="1.6469" fill="#FDCC54"/>
<circle cx="19.2143" cy="332.881" r="1.6469" fill="#FDCC54"/>
<circle cx="50.6147" cy="332.881" r="1.6469" fill="#FDCC54"/>
<circle cx="82.016" cy="332.881" r="1.6469" fill="#FDCC54"/>
<circle cx="113.417" cy="332.881" r="1.6469" fill="#FDCC54"/>
<circle cx="144.818" cy="332.881" r="1.6469" fill="#FDCC54"/>
<circle cx="176.219" cy="332.881" r="1.6469" fill="#FDCC54"/>
<circle cx="207.621" cy="332.881" r="1.6469" fill="#FDCC54"/>
<circle cx="239.021" cy="332.881" r="1.6469" fill="#FDCC54"/>
<circle cx="19.2143" cy="364.282" r="1.6469" fill="#FDCC54"/>
<circle cx="50.6147" cy="364.282" r="1.6469" fill="#FDCC54"/>
<circle cx="82.016" cy="364.282" r="1.6469" fill="#FDCC54"/>
<circle cx="113.417" cy="364.282" r="1.6469" fill="#FDCC54"/>
<circle cx="144.818" cy="364.282" r="1.6469" fill="#FDCC54"/>
<circle cx="176.219" cy="364.282" r="1.6469" fill="#FDCC54"/>
<circle cx="207.621" cy="364.282" r="1.6469" fill="#FDCC54"/>
<circle cx="239.021" cy="364.282" r="1.6469" fill="#FDCC54"/>
<circle cx="19.2143" cy="395.683" r="1.6469" fill="#FDCC54"/>
<circle cx="50.6147" cy="395.683" r="1.6469" fill="#FDCC54"/>
<circle cx="82.016" cy="395.683" r="1.6469" fill="#FDCC54"/>
<circle cx="113.417" cy="395.683" r="1.6469" fill="#FDCC54"/>
<circle cx="144.818" cy="395.683" r="1.6469" fill="#FDCC54"/>
<circle cx="176.219" cy="395.683" r="1.6469" fill="#FDCC54"/>
<circle cx="207.621" cy="395.683" r="1.6469" fill="#FDCC54"/>
<circle cx="239.021" cy="395.683" r="1.6469" fill="#FDCC54"/>
<circle cx="19.2143" cy="427.084" r="1.6469" fill="#FDCC54"/>
<circle cx="50.6147" cy="427.084" r="1.6469" fill="#FDCC54"/>
<circle cx="82.016" cy="427.084" r="1.6469" fill="#FDCC54"/>
<circle cx="113.417" cy="427.084" r="1.6469" fill="#FDCC54"/>
<circle cx="144.818" cy="427.084" r="1.6469" fill="#FDCC54"/>
<circle cx="176.219" cy="427.084" r="1.6469" fill="#FDCC54"/>
<circle cx="207.621" cy="427.084" r="1.6469" fill="#FDCC54"/>
<circle cx="239.021" cy="427.084" r="1.6469" fill="#FDCC54"/>
<circle cx="19.2143" cy="458.485" r="1.6469" fill="#FDCC54"/>
<circle cx="50.6147" cy="458.485" r="1.6469" fill="#FDCC54"/>
<circle cx="82.016" cy="458.485" r="1.6469" fill="#FDCC54"/>
<circle cx="113.417" cy="458.485" r="1.6469" fill="#FDCC54"/>
<circle cx="144.818" cy="458.485" r="1.6469" fill="#FDCC54"/>
<circle cx="176.219" cy="458.485" r="1.6469" fill="#FDCC54"/>
<circle cx="207.621" cy="458.485" r="1.6469" fill="#FDCC54"/>
<circle cx="239.021" cy="458.485" r="1.6469" fill="#FDCC54"/>
<circle cx="19.2143" cy="489.886" r="1.6469" fill="#FDCC54"/>
<circle cx="50.6147" cy="489.886" r="1.6469" fill="#FDCC54"/>
<circle cx="82.016" cy="489.886" r="1.6469" fill="#FDCC54"/>
<circle cx="113.417" cy="489.886" r="1.6469" fill="#FDCC54"/>
<circle cx="144.818" cy="489.886" r="1.6469" fill="#FDCC54"/>
<circle cx="176.219" cy="489.886" r="1.6469" fill="#FDCC54"/>
<circle cx="207.621" cy="489.886" r="1.6469" fill="#FDCC54"/>
<circle cx="239.021" cy="489.886" r="1.6469" fill="#FDCC54"/>
<circle cx="19.2143" cy="521.287" r="1.6469" fill="#FDCC54"/>
<circle cx="50.6147" cy="521.287" r="1.6469" fill="#FDCC54"/>
<circle cx="82.016" cy="521.287" r="1.6469" fill="#FDCC54"/>
<circle cx="113.417" cy="521.287" r="1.6469" fill="#FDCC54"/>
<circle cx="144.818" cy="521.287" r="1.6469" fill="#FDCC54"/>
<circle cx="176.219" cy="521.287" r="1.6469" fill="#FDCC54"/>
<circle cx="207.621" cy="521.287" r="1.6469" fill="#FDCC54"/>
<circle cx="239.021" cy="521.287" r="1.6469" fill="#FDCC54"/>
<circle cx="19.2143" cy="552.688" r="1.6469" fill="#FDCC54"/>
<circle cx="50.6147" cy="552.688" r="1.6469" fill="#FDCC54"/>
<circle cx="82.016" cy="552.688" r="1.6469" fill="#FDCC54"/>
<circle cx="113.417" cy="552.688" r="1.6469" fill="#FDCC54"/>
<circle cx="144.818" cy="552.688" r="1.6469" fill="#FDCC54"/>
<circle cx="176.219" cy="552.688" r="1.6469" fill="#FDCC54"/>
<circle cx="207.621" cy="552.688" r="1.6469" fill="#FDCC54"/>
<circle cx="239.021" cy="552.688" r="1.6469" fill="#FDCC54"/>
<circle cx="19.2143" cy="584.089" r="1.6469" fill="#FDCC54"/>
<circle cx="50.6147" cy="584.089" r="1.6469" fill="#FDCC54"/>
<circle cx="82.016" cy="584.089" r="1.6469" fill="#FDCC54"/>
<circle cx="113.417" cy="584.089" r="1.6469" fill="#FDCC54"/>
<circle cx="144.818" cy="584.089" r="1.6469" fill="#FDCC54"/>
<circle cx="176.219" cy="584.089" r="1.6469" fill="#FDCC54"/>
<circle cx="207.621" cy="584.089" r="1.6469" fill="#FDCC54"/>
<circle cx="239.021" cy="584.089" r="1.6469" fill="#FDCC54"/>
<circle cx="19.2143" cy="615.49" r="1.6469" fill="#FDCC54"/>
<circle cx="50.6147" cy="615.49" r="1.6469" fill="#FDCC54"/>
<circle cx="82.016" cy="615.49" r="1.6469" fill="#FDCC54"/>
<circle cx="113.417" cy="615.49" r="1.6469" fill="#FDCC54"/>
<circle cx="144.818" cy="615.49" r="1.6469" fill="#FDCC54"/>
<circle cx="176.219" cy="615.49" r="1.6469" fill="#FDCC54"/>
<circle cx="207.621" cy="615.49" r="1.6469" fill="#FDCC54"/>
<circle cx="239.021" cy="615.49" r="1.6469" fill="#FDCC54"/>
<circle cx="19.2143" cy="646.891" r="1.6469" fill="#FDCC54"/>
<circle cx="50.6147" cy="646.891" r="1.6469" fill="#FDCC54"/>
<circle cx="82.016" cy="646.891" r="1.6469" fill="#FDCC54"/>
<circle cx="113.417" cy="646.891" r="1.6469" fill="#FDCC54"/>
<circle cx="144.818" cy="646.891" r="1.6469" fill="#FDCC54"/>
<circle cx="176.219" cy="646.891" r="1.6469" fill="#FDCC54"/>
<circle cx="207.621" cy="646.891" r="1.6469" fill="#FDCC54"/>
<circle cx="239.021" cy="646.891" r="1.6469" fill="#FDCC54"/>
<circle cx="270.422" cy="270.079" r="1.6469" fill="#FDCC54"/>
<circle cx="301.823" cy="270.079" r="1.6469" fill="#FDCC54"/>
<circle cx="333.224" cy="270.079" r="1.6469" fill="#FDCC54"/>
<circle cx="364.625" cy="270.079" r="1.6469" fill="#FDCC54"/>
<circle cx="270.422" cy="301.48" r="1.6469" fill="#FDCC54"/>
<circle cx="301.823" cy="301.48" r="1.6469" fill="#FDCC54"/>
<circle cx="333.224" cy="301.48" r="1.6469" fill="#FDCC54"/>
<circle cx="364.625" cy="301.48" r="1.6469" fill="#FDCC54"/>
<circle cx="270.422" cy="332.881" r="1.6469" fill="#FDCC54"/>
<circle cx="301.823" cy="332.881" r="1.6469" fill="#FDCC54"/>
<circle cx="333.224" cy="332.881" r="1.6469" fill="#FDCC54"/>
<circle cx="364.625" cy="332.881" r="1.6469" fill="#FDCC54"/>
<circle cx="270.422" cy="364.282" r="1.6469" fill="#FDCC54"/>
<circle cx="301.823" cy="364.282" r="1.6469" fill="#FDCC54"/>
<circle cx="333.224" cy="364.282" r="1.6469" fill="#FDCC54"/>
<circle cx="364.625" cy="364.282" r="1.6469" fill="#FDCC54"/>
<circle cx="270.422" cy="395.683" r="1.6469" fill="#FDCC54"/>
<circle cx="301.823" cy="395.683" r="1.6469" fill="#FDCC54"/>
<circle cx="333.224" cy="395.683" r="1.6469" fill="#FDCC54"/>
<circle cx="364.625" cy="395.683" r="1.6469" fill="#FDCC54"/>
<circle cx="270.422" cy="427.084" r="1.6469" fill="#FDCC54"/>
<circle cx="301.823" cy="427.084" r="1.6469" fill="#FDCC54"/>
<circle cx="333.224" cy="427.084" r="1.6469" fill="#FDCC54"/>
<circle cx="364.625" cy="427.084" r="1.6469" fill="#FDCC54"/>
<circle cx="270.422" cy="458.485" r="1.6469" fill="#FDCC54"/>
<circle cx="301.823" cy="458.485" r="1.6469" fill="#FDCC54"/>
<circle cx="333.224" cy="458.485" r="1.6469" fill="#FDCC54"/>
<circle cx="364.625" cy="458.485" r="1.6469" fill="#FDCC54"/>
<circle cx="270.422" cy="489.886" r="1.6469" fill="#FDCC54"/>
<circle cx="301.823" cy="489.886" r="1.6469" fill="#FDCC54"/>
<circle cx="333.224" cy="489.886" r="1.6469" fill="#FDCC54"/>
<circle cx="364.625" cy="489.886" r="1.6469" fill="#FDCC54"/>
<circle cx="270.422" cy="521.287" r="1.6469" fill="#FDCC54"/>
<circle cx="301.823" cy="521.287" r="1.6469" fill="#FDCC54"/>
<circle cx="333.224" cy="521.287" r="1.6469" fill="#FDCC54"/>
<circle cx="364.625" cy="521.287" r="1.6469" fill="#FDCC54"/>
<circle cx="270.422" cy="552.688" r="1.6469" fill="#FDCC54"/>
<circle cx="301.823" cy="552.688" r="1.6469" fill="#FDCC54"/>
<circle cx="333.224" cy="552.688" r="1.6469" fill="#FDCC54"/>
<circle cx="364.625" cy="552.688" r="1.6469" fill="#FDCC54"/>
<circle cx="270.422" cy="584.089" r="1.6469" fill="#FDCC54"/>
<circle cx="301.823" cy="584.089" r="1.6469" fill="#FDCC54"/>
<circle cx="333.224" cy="584.089" r="1.6469" fill="#FDCC54"/>
<circle cx="364.625" cy="584.089" r="1.6469" fill="#FDCC54"/>
<circle cx="270.422" cy="615.49" r="1.6469" fill="#FDCC54"/>
<circle cx="301.823" cy="615.49" r="1.6469" fill="#FDCC54"/>
<circle cx="333.224" cy="615.49" r="1.6469" fill="#FDCC54"/>
<circle cx="364.625" cy="615.49" r="1.6469" fill="#FDCC54"/>
<circle cx="270.422" cy="646.891" r="1.6469" fill="#FDCC54"/>
<circle cx="301.823" cy="646.891" r="1.6469" fill="#FDCC54"/>
<circle cx="333.224" cy="646.891" r="1.6469" fill="#FDCC54"/>
<circle cx="364.625" cy="646.891" r="1.6469" fill="#FDCC54"/>
<circle cx="19.2143" cy="678.292" r="1.6469" fill="#FDCC54"/>
<circle cx="50.6147" cy="678.292" r="1.6469" fill="#FDCC54"/>
<circle cx="82.016" cy="678.292" r="1.6469" fill="#FDCC54"/>
<circle cx="113.417" cy="678.292" r="1.6469" fill="#FDCC54"/>
<circle cx="144.818" cy="678.292" r="1.6469" fill="#FDCC54"/>
<circle cx="176.219" cy="678.292" r="1.6469" fill="#FDCC54"/>
<circle cx="207.621" cy="678.292" r="1.6469" fill="#FDCC54"/>
<circle cx="239.021" cy="678.292" r="1.6469" fill="#FDCC54"/>
<circle cx="19.2143" cy="709.693" r="1.6469" fill="#FDCC54"/>
<circle cx="50.6147" cy="709.693" r="1.6469" fill="#FDCC54"/>
<circle cx="82.016" cy="709.693" r="1.6469" fill="#FDCC54"/>
<circle cx="113.417" cy="709.693" r="1.6469" fill="#FDCC54"/>
<circle cx="144.818" cy="709.693" r="1.6469" fill="#FDCC54"/>
<circle cx="176.219" cy="709.693" r="1.6469" fill="#FDCC54"/>
<circle cx="207.621" cy="709.693" r="1.6469" fill="#FDCC54"/>
<circle cx="239.021" cy="709.693" r="1.6469" fill="#FDCC54"/>
<circle cx="19.2143" cy="741.094" r="1.6469" fill="#FDCC54"/>
<circle cx="50.6147" cy="741.094" r="1.6469" fill="#FDCC54"/>
<circle cx="82.016" cy="741.094" r="1.6469" fill="#FDCC54"/>
<circle cx="113.417" cy="741.094" r="1.6469" fill="#FDCC54"/>
<circle cx="144.818" cy="741.094" r="1.6469" fill="#FDCC54"/>
<circle cx="176.219" cy="741.094" r="1.6469" fill="#FDCC54"/>
<circle cx="207.621" cy="741.094" r="1.6469" fill="#FDCC54"/>
<circle cx="239.021" cy="741.094" r="1.6469" fill="#FDCC54"/>
<circle cx="19.2143" cy="772.495" r="1.6469" fill="#FDCC54"/>
<circle cx="50.6147" cy="772.495" r="1.6469" fill="#FDCC54"/>
<circle cx="82.016" cy="772.495" r="1.6469" fill="#FDCC54"/>
<circle cx="113.417" cy="772.495" r="1.6469" fill="#FDCC54"/>
<circle cx="144.818" cy="772.495" r="1.6469" fill="#FDCC54"/>
<circle cx="176.219" cy="772.495" r="1.6469" fill="#FDCC54"/>
<circle cx="207.621" cy="772.495" r="1.6469" fill="#FDCC54"/>
<circle cx="239.021" cy="772.495" r="1.6469" fill="#FDCC54"/>
<circle cx="19.2143" cy="803.896" r="1.6469" fill="#FDCC54"/>
<circle cx="50.6147" cy="803.896" r="1.6469" fill="#FDCC54"/>
<circle cx="82.016" cy="803.896" r="1.6469" fill="#FDCC54"/>
<circle cx="113.417" cy="803.896" r="1.6469" fill="#FDCC54"/>
<circle cx="144.818" cy="803.896" r="1.6469" fill="#FDCC54"/>
<circle cx="176.219" cy="803.896" r="1.6469" fill="#FDCC54"/>
<circle cx="207.621" cy="803.896" r="1.6469" fill="#FDCC54"/>
<circle cx="239.021" cy="803.896" r="1.6469" fill="#FDCC54"/>
<circle cx="19.2143" cy="835.297" r="1.6469" fill="#FDCC54"/>
<circle cx="50.6147" cy="835.297" r="1.6469" fill="#FDCC54"/>
<circle cx="82.016" cy="835.297" r="1.6469" fill="#FDCC54"/>
<circle cx="113.417" cy="835.297" r="1.6469" fill="#FDCC54"/>
<circle cx="144.818" cy="835.297" r="1.6469" fill="#FDCC54"/>
<circle cx="176.219" cy="835.297" r="1.6469" fill="#FDCC54"/>
<circle cx="207.621" cy="835.297" r="1.6469" fill="#FDCC54"/>
<circle cx="239.021" cy="835.297" r="1.6469" fill="#FDCC54"/>
<circle cx="19.2143" cy="866.698" r="1.6469" fill="#FDCC54"/>
<circle cx="50.6147" cy="866.698" r="1.6469" fill="#FDCC54"/>
<circle cx="82.016" cy="866.698" r="1.6469" fill="#FDCC54"/>
<circle cx="113.417" cy="866.698" r="1.6469" fill="#FDCC54"/>
<circle cx="144.818" cy="866.698" r="1.6469" fill="#FDCC54"/>
<circle cx="176.219" cy="866.698" r="1.6469" fill="#FDCC54"/>
<circle cx="207.621" cy="866.698" r="1.6469" fill="#FDCC54"/>
<circle cx="239.021" cy="866.698" r="1.6469" fill="#FDCC54"/>
<circle cx="19.2143" cy="898.099" r="1.6469" fill="#FDCC54"/>
<circle cx="50.6147" cy="898.099" r="1.6469" fill="#FDCC54"/>
<circle cx="82.016" cy="898.099" r="1.6469" fill="#FDCC54"/>
<circle cx="113.417" cy="898.099" r="1.6469" fill="#FDCC54"/>
<circle cx="144.818" cy="898.099" r="1.6469" fill="#FDCC54"/>
<circle cx="176.219" cy="898.099" r="1.6469" fill="#FDCC54"/>
<circle cx="207.621" cy="898.099" r="1.6469" fill="#FDCC54"/>
<circle cx="239.021" cy="898.099" r="1.6469" fill="#FDCC54"/>
<circle cx="19.2143" cy="929.5" r="1.6469" fill="#FDCC54"/>
<circle cx="50.6147" cy="929.5" r="1.6469" fill="#FDCC54"/>
<circle cx="82.016" cy="929.5" r="1.6469" fill="#FDCC54"/>
<circle cx="113.417" cy="929.5" r="1.6469" fill="#FDCC54"/>
<circle cx="144.818" cy="929.5" r="1.6469" fill="#FDCC54"/>
<circle cx="176.219" cy="929.5" r="1.6469" fill="#FDCC54"/>
<circle cx="207.621" cy="929.5" r="1.6469" fill="#FDCC54"/>
<circle cx="239.021" cy="929.5" r="1.6469" fill="#FDCC54"/>
<circle cx="19.2143" cy="960.901" r="1.6469" fill="#FDCC54"/>
<circle cx="50.6147" cy="960.901" r="1.6469" fill="#FDCC54"/>
<circle cx="82.016" cy="960.901" r="1.6469" fill="#FDCC54"/>
<circle cx="113.417" cy="960.901" r="1.6469" fill="#FDCC54"/>
<circle cx="144.818" cy="960.901" r="1.6469" fill="#FDCC54"/>
<circle cx="176.219" cy="960.901" r="1.6469" fill="#FDCC54"/>
<circle cx="207.621" cy="960.901" r="1.6469" fill="#FDCC54"/>
<circle cx="239.021" cy="960.901" r="1.6469" fill="#FDCC54"/>
<circle cx="19.2143" cy="992.302" r="1.6469" fill="#FDCC54"/>
<circle cx="50.6147" cy="992.302" r="1.6469" fill="#FDCC54"/>
<circle cx="82.016" cy="992.302" r="1.6469" fill="#FDCC54"/>
<circle cx="113.417" cy="992.302" r="1.6469" fill="#FDCC54"/>
<circle cx="144.818" cy="992.302" r="1.6469" fill="#FDCC54"/>
<circle cx="176.219" cy="992.302" r="1.6469" fill="#FDCC54"/>
<circle cx="207.621" cy="992.302" r="1.6469" fill="#FDCC54"/>
<circle cx="239.021" cy="992.302" r="1.6469" fill="#FDCC54"/>
<circle cx="19.2143" cy="1023.7" r="1.6469" fill="#FDCC54"/>
<circle cx="50.6147" cy="1023.7" r="1.6469" fill="#FDCC54"/>
<circle cx="82.016" cy="1023.7" r="1.6469" fill="#FDCC54"/>
<circle cx="113.417" cy="1023.7" r="1.6469" fill="#FDCC54"/>
<circle cx="144.818" cy="1023.7" r="1.6469" fill="#FDCC54"/>
<circle cx="176.219" cy="1023.7" r="1.6469" fill="#FDCC54"/>
<circle cx="207.621" cy="1023.7" r="1.6469" fill="#FDCC54"/>
<circle cx="239.021" cy="1023.7" r="1.6469" fill="#FDCC54"/>
<circle cx="19.2143" cy="1055.1" r="1.6469" fill="#FDCC54"/>
<circle cx="50.6147" cy="1055.1" r="1.6469" fill="#FDCC54"/>
<circle cx="82.016" cy="1055.1" r="1.6469" fill="#FDCC54"/>
<circle cx="113.417" cy="1055.1" r="1.6469" fill="#FDCC54"/>
<circle cx="144.818" cy="1055.1" r="1.6469" fill="#FDCC54"/>
<circle cx="176.219" cy="1055.1" r="1.6469" fill="#FDCC54"/>
<circle cx="207.621" cy="1055.1" r="1.6469" fill="#FDCC54"/>
<circle cx="239.021" cy="1055.1" r="1.6469" fill="#FDCC54"/>
<circle cx="270.422" cy="678.292" r="1.6469" fill="#FDCC54"/>
<circle cx="301.823" cy="678.292" r="1.6469" fill="#FDCC54"/>
<circle cx="333.224" cy="678.292" r="1.6469" fill="#FDCC54"/>
<circle cx="364.625" cy="678.292" r="1.6469" fill="#FDCC54"/>
<circle cx="270.422" cy="709.693" r="1.6469" fill="#FDCC54"/>
<circle cx="301.823" cy="709.693" r="1.6469" fill="#FDCC54"/>
<circle cx="333.224" cy="709.693" r="1.6469" fill="#FDCC54"/>
<circle cx="364.625" cy="709.693" r="1.6469" fill="#FDCC54"/>
<circle cx="270.422" cy="741.094" r="1.6469" fill="#FDCC54"/>
<circle cx="301.823" cy="741.094" r="1.6469" fill="#FDCC54"/>
<circle cx="333.224" cy="741.094" r="1.6469" fill="#FDCC54"/>
<circle cx="364.625" cy="741.094" r="1.6469" fill="#FDCC54"/>
<circle cx="270.422" cy="772.495" r="1.6469" fill="#FDCC54"/>
<circle cx="301.823" cy="772.495" r="1.6469" fill="#FDCC54"/>
<circle cx="333.224" cy="772.495" r="1.6469" fill="#FDCC54"/>
<circle cx="364.625" cy="772.495" r="1.6469" fill="#FDCC54"/>
<circle cx="270.422" cy="803.896" r="1.6469" fill="#FDCC54"/>
<circle cx="301.823" cy="803.896" r="1.6469" fill="#FDCC54"/>
<circle cx="333.224" cy="803.896" r="1.6469" fill="#FDCC54"/>
<circle cx="364.625" cy="803.896" r="1.6469" fill="#FDCC54"/>
<circle cx="270.422" cy="835.297" r="1.6469" fill="#FDCC54"/>
<circle cx="301.823" cy="835.297" r="1.6469" fill="#FDCC54"/>
<circle cx="333.224" cy="835.297" r="1.6469" fill="#FDCC54"/>
<circle cx="364.625" cy="835.297" r="1.6469" fill="#FDCC54"/>
<circle cx="270.422" cy="866.698" r="1.6469" fill="#FDCC54"/>
<circle cx="301.823" cy="866.698" r="1.6469" fill="#FDCC54"/>
<circle cx="333.224" cy="866.698" r="1.6469" fill="#FDCC54"/>
<circle cx="364.625" cy="866.698" r="1.6469" fill="#FDCC54"/>
<circle cx="270.422" cy="898.099" r="1.6469" fill="#FDCC54"/>
<circle cx="301.823" cy="898.099" r="1.6469" fill="#FDCC54"/>
<circle cx="333.224" cy="898.099" r="1.6469" fill="#FDCC54"/>
<circle cx="364.625" cy="898.099" r="1.6469" fill="#FDCC54"/>
<circle cx="270.422" cy="929.5" r="1.6469" fill="#FDCC54"/>
<circle cx="301.823" cy="929.5" r="1.6469" fill="#FDCC54"/>
<circle cx="333.224" cy="929.5" r="1.6469" fill="#FDCC54"/>
<circle cx="364.625" cy="929.5" r="1.6469" fill="#FDCC54"/>
<circle cx="270.422" cy="960.901" r="1.6469" fill="#FDCC54"/>
<circle cx="301.823" cy="960.901" r="1.6469" fill="#FDCC54"/>
<circle cx="333.224" cy="960.901" r="1.6469" fill="#FDCC54"/>
<circle cx="364.625" cy="960.901" r="1.6469" fill="#FDCC54"/>
<circle cx="270.422" cy="992.302" r="1.6469" fill="#FDCC54"/>
<circle cx="301.823" cy="992.302" r="1.6469" fill="#FDCC54"/>
<circle cx="333.224" cy="992.302" r="1.6469" fill="#FDCC54"/>
<circle cx="364.625" cy="992.302" r="1.6469" fill="#FDCC54"/>
<circle cx="270.422" cy="1023.7" r="1.6469" fill="#FDCC54"/>
<circle cx="301.823" cy="1023.7" r="1.6469" fill="#FDCC54"/>
<circle cx="333.224" cy="1023.7" r="1.6469" fill="#FDCC54"/>
<circle cx="364.625" cy="1023.7" r="1.6469" fill="#FDCC54"/>
<circle cx="270.422" cy="1055.1" r="1.6469" fill="#FDCC54"/>
<circle cx="301.823" cy="1055.1" r="1.6469" fill="#FDCC54"/>
<circle cx="333.224" cy="1055.1" r="1.6469" fill="#FDCC54"/>
<circle cx="364.625" cy="1055.1" r="1.6469" fill="#FDCC54"/>
</g>
</g>
</svg>
